<svg xmlns="http://www.w3.org/2000/svg" viewBox="0 0 1777.42 955.6"><defs><style>.cls-1,.cls-3{fill:none;stroke:#fff;stroke-linecap:round;stroke-linejoin:round;}.cls-1{stroke-width:1.5px;}.cls-2{fill:#fff;}.cls-3{stroke-width:2px;}</style></defs><title>Asset 1</title><g id="Layer_2" data-name="Layer 2"><g id="Layer_1-2" data-name="Layer 1"><path class="cls-1" d="M247,118.59,245.21,130a1.52,1.52,0,0,0,.81,1.59l10.25,5.22a1.52,1.52,0,0,0,1.76-.28l8.14-8.14a1.52,1.52,0,0,0,.28-1.76l-5.22-10.25a1.52,1.52,0,0,0-1.59-.81l-11.37,1.8A1.52,1.52,0,0,0,247,118.59Z"/><polygon class="cls-1" points="10.98 866.74 23.49 883.96 43.73 877.38 43.73 856.1 23.49 849.53 10.98 866.74"/><polygon class="cls-1" points="1609.88 196.94 1588.86 193.61 1579.2 212.58 1594.25 227.63 1613.21 217.96 1609.88 196.94"/><polygon class="cls-1" points="1740.16 948.28 1763.28 954.85 1776.67 934.88 1761.82 915.98 1739.26 924.27 1740.16 948.28"/><path class="cls-1" d="M147,75.25,134.9,84.89a3.44,3.44,0,0,0-1.26,3.2l2.29,15.31a3.44,3.44,0,0,0,2.14,2.69l14.4,5.67a3.44,3.44,0,0,0,3.4-.51L168,101.62a3.44,3.44,0,0,0,1.26-3.2L167,83.11a3.44,3.44,0,0,0-2.14-2.69l-14.4-5.67A3.44,3.44,0,0,0,147,75.25Z"/><line class="cls-1" x1="129.69" y1="22.93" x2="151.69" y2="31.07"/><line class="cls-1" x1="144.76" y1="16" x2="136.62" y2="38"/><polygon class="cls-1" points="1699.41 31.1 1679.99 11.67 1653.45 18.78 1646.34 45.32 1665.77 64.75 1692.3 57.64 1699.41 31.1"/><circle class="cls-1" cx="1688.69" cy="644" r="16"/><circle class="cls-1" cx="194.69" cy="726" r="16"/><circle class="cls-2" cx="65.69" cy="607" r="6"/><circle class="cls-2" cx="1713.69" cy="231" r="4"/><line class="cls-3" x1="1" y1="1" x2="1" y2="127.6"/><line class="cls-3" x1="1" y1="138.37" x2="1" y2="143.76"/><line class="cls-3" x1="1" y1="154.53" x2="1" y2="157.23"/><line class="cls-3" x1="1" y1="168" x2="1.03" y2="168"/><path class="cls-1" d="M214,47.92l-2.09,18.39a2.37,2.37,0,0,0,3.31,2.45l17-7.38a2.38,2.38,0,0,0,.47-4.09l-14.88-11A2.37,2.37,0,0,0,214,47.92Z"/><path class="cls-1" d="M1550.3,912.35l1.8-11.37a1.52,1.52,0,0,0-.81-1.59L1541,894.17a1.52,1.52,0,0,0-1.76.28l-8.14,8.14a1.52,1.52,0,0,0-.28,1.76l5.22,10.25a1.52,1.52,0,0,0,1.59.81l11.37-1.8A1.52,1.52,0,0,0,1550.3,912.35Z"/><path class="cls-1" d="M1735.3,797.69l12.12-9.64a3.44,3.44,0,0,0,1.26-3.2l-2.29-15.31a3.44,3.44,0,0,0-2.14-2.69l-14.4-5.67a3.44,3.44,0,0,0-3.4.51l-12.12,9.64a3.44,3.44,0,0,0-1.26,3.2l2.29,15.31a3.44,3.44,0,0,0,2.14,2.69l14.4,5.67A3.44,3.44,0,0,0,1735.3,797.69Z"/><line class="cls-1" x1="1622.62" y1="767.01" x2="1600.62" y2="758.87"/><line class="cls-1" x1="1607.55" y1="773.94" x2="1615.69" y2="751.94"/><path class="cls-1" d="M1678.32,876l2.09-18.39a2.38,2.38,0,0,0-3.31-2.45l-17,7.38a2.37,2.37,0,0,0-.47,4.09l14.88,11A2.37,2.37,0,0,0,1678.32,876Z"/></g></g></svg>