<svg xmlns="http://www.w3.org/2000/svg" viewBox="0 0 1782.26 922.1"><defs><style>.cls-1{fill:none;stroke:#fff;stroke-linecap:round;stroke-linejoin:round;stroke-width:1.5px;}.cls-2{fill:#fff;}</style></defs><title>Asset 2</title><g id="Layer_2" data-name="Layer 2"><g id="Layer_1-2" data-name="Layer 1"><path class="cls-1" d="M1636.45,804l11.37,1.8a1.52,1.52,0,0,0,1.59-.81l5.22-10.25a1.52,1.52,0,0,0-.28-1.76l-8.14-8.14a1.52,1.52,0,0,0-1.76-.28l-10.25,5.22a1.52,1.52,0,0,0-.81,1.59l1.8,11.37A1.52,1.52,0,0,0,1636.45,804Z"/><polygon class="cls-1" points="1781.51 62.6 1769 45.39 1748.76 51.96 1748.76 73.25 1769 79.82 1781.51 62.6"/><polygon class="cls-1" points="30.61 733.41 51.63 736.74 61.29 717.77 46.24 702.72 27.28 712.39 30.61 733.41"/><polygon class="cls-1" points="47.45 39.32 26.46 51.02 31.11 74.61 54.97 77.47 65.07 55.66 47.45 39.32"/><path class="cls-1" d="M1593.12,904l9.64,12.12a3.44,3.44,0,0,0,3.2,1.26l15.31-2.29A3.44,3.44,0,0,0,1624,913l5.67-14.4a3.44,3.44,0,0,0-.51-3.4L1619.48,883a3.44,3.44,0,0,0-3.2-1.26L1601,884.07a3.44,3.44,0,0,0-2.69,2.14l-5.67,14.4A3.44,3.44,0,0,0,1593.12,904Z"/><line class="cls-1" x1="1540.79" y1="921.35" x2="1548.93" y2="899.35"/><line class="cls-1" x1="1533.86" y1="906.28" x2="1555.86" y2="914.41"/><polygon class="cls-1" points="32.07 891.25 51.5 910.68 78.04 903.57 85.15 877.03 65.72 857.6 39.18 864.71 32.07 891.25"/><circle class="cls-1" cx="150.51" cy="119.5" r="16" transform="translate(-40.42 141.43) rotate(-45)"/><circle class="cls-1" cx="1597.8" cy="203.35" r="16"/><circle class="cls-2" cx="1726.8" cy="322.35" r="6"/><circle class="cls-2" cx="103.51" cy="790.5" r="4"/><path class="cls-1" d="M1565.78,837l18.39,2.09a2.38,2.38,0,0,0,2.45-3.31l-7.38-17a2.38,2.38,0,0,0-4.09-.47l-11,14.88A2.38,2.38,0,0,0,1565.78,837Z"/><path class="cls-1" d="M156.11,12.47l6.76,9.31a1.52,1.52,0,0,0,1.7.55l10.95-3.56a1.52,1.52,0,0,0,1-1.45V5.83a1.52,1.52,0,0,0-1-1.45L164.57.82a1.52,1.52,0,0,0-1.7.55l-6.76,9.31A1.52,1.52,0,0,0,156.11,12.47Z"/><path class="cls-1" d="M239.37,94.36l-1.75,15.38A3.44,3.44,0,0,0,239,112.9l12.45,9.21a3.44,3.44,0,0,0,3.42.39l14.2-6.17a3.44,3.44,0,0,0,2-2.76l1.75-15.38A3.44,3.44,0,0,0,271.48,95L259,85.82a3.44,3.44,0,0,0-3.42-.39l-14.2,6.17A3.44,3.44,0,0,0,239.37,94.36Z"/><line class="cls-1" x1="67.74" y1="215.38" x2="89.05" y2="205.58"/><line class="cls-1" x1="73.49" y1="199.83" x2="83.29" y2="221.14"/><path class="cls-1" d="M1.27,155.69l11.53,14.49a2.38,2.38,0,0,0,4.07-.61l6.78-17.22a2.37,2.37,0,0,0-2.56-3.22L2.78,151.86A2.38,2.38,0,0,0,1.27,155.69Z"/></g></g></svg>