<svg xmlns="http://www.w3.org/2000/svg" viewBox="0 0 178.85 163.21"><defs><style>.cls-1{fill:#5bb876;}.cls-1,.cls-2,.cls-3,.cls-4{stroke:#fff;stroke-miterlimit:10;stroke-width:5.5px;}.cls-2{fill:#eb493e;}.cls-3{fill:#f9c117;}.cls-4{fill:#fff;}.cls-5{fill:#fabd05;}.cls-6{fill:#4285f5;}.cls-7{fill:#eb4236;}.cls-8{fill:#33a854;}</style></defs><title>Asset7</title><g id="Layer_2" data-name="Layer 2"><g id="Layer_1-2" data-name="Layer 1"><path class="cls-1" d="M164.18,34.43A11.5,11.5,0,0,1,176.1,46.06a11.7,11.7,0,0,1-11.38,11.88c-6.42.1-12-5.07-12.13-11.17C152.49,39.7,157.34,34.54,164.18,34.43Z"/><path class="cls-2" d="M152.59,73.8c-.39,13.51-10.75,23.63-23.83,23.55a23.63,23.63,0,0,1,.16-47.25C142.35,50.16,152.24,60.41,152.59,73.8Z"/><path class="cls-3" d="M128.91,105.3c15.38.18,27.56,12,27.56,27.56a27.58,27.58,0,1,1-55.16,0C101.39,116.86,113.92,105.4,128.91,105.3Z"/><path class="cls-4" d="M96.82,44a44.46,44.46,0,0,0-11-24.82C73.77,5.71,58.5.33,40.77,3.75c-16,3.09-27.48,12.63-34.16,27.59a45.92,45.92,0,0,0-3.1,27A44.64,44.64,0,0,0,13.38,79.9a42.9,42.9,0,0,0,7.5,7.41c11.72,9,24.91,11.84,39.29,8.9A45.25,45.25,0,0,0,85.94,80.82,44.83,44.83,0,0,0,96.37,59,46.55,46.55,0,0,0,96.82,44Z"/><path class="cls-5" d="M128.91,105.3c15.38.18,27.56,12,27.56,27.56a27.58,27.58,0,1,1-55.16,0C101.39,116.86,113.92,105.4,128.91,105.3Z"/><path class="cls-6" d="M96.82,44a44.46,44.46,0,0,0-11-24.82C73.77,5.71,58.5.33,40.77,3.75c-16,3.09-27.48,12.63-34.16,27.59a45.92,45.92,0,0,0-3.1,27A44.64,44.64,0,0,0,13.38,79.9a42.9,42.9,0,0,0,7.5,7.41c11.72,9,24.91,11.84,39.29,8.9A45.25,45.25,0,0,0,85.94,80.82,44.83,44.83,0,0,0,96.37,59,46.55,46.55,0,0,0,96.82,44Z"/><path class="cls-7" d="M152.59,73.8c-.39,13.51-10.75,23.63-23.83,23.55a23.63,23.63,0,0,1,.16-47.25C142.35,50.16,152.24,60.41,152.59,73.8Z"/><path class="cls-8" d="M164.18,34.43A11.5,11.5,0,0,1,176.1,46.06a11.7,11.7,0,0,1-11.38,11.88c-6.42.1-12-5.07-12.13-11.17C152.49,39.7,157.34,34.54,164.18,34.43Z"/></g></g></svg>